<svg xmlns="http://www.w3.org/2000/svg" viewBox="0 0 769.93 174.48"><title>2022 AM Wings_Mono Negative</title><path d="M757.67,0H447.76C442.17,0,434.34-.1,426,8.2c-7.87,7.87-5.5,15.63-18.47,15.63H362.36c-13,0-10.59-7.76-18.47-15.63C335.59-.1,327.76,0,322.17,0H12.26C1.63,0-3,9.43,2,17.83l5.6,9.32c3,5.12,6.94,5.92,9.82,6.49,2.66.54,4.27.86,6.33,4.47l4.92,8.65c3.79,7,8.36,7.91,11.7,8.54,2.68.51,5.08.72,8.37,6.72,3.57,6.49,8.39,14.7,19.69,18.06l115.78,33.77c12,3.9,15.12,8.31,18.67,13.42,1.86,2.67,7.6,12.33,23.2,16.53l110.1,29.75c10.33,2.79,17.55-1.16,22.56-5.6l20-18.9c5.12-4.85,7.31-4.85,12.43,0l20,18.9c5,4.44,12.23,8.39,22.56,5.6l110.1-29.75c15.61-4.2,21.34-13.86,23.2-16.53,3.56-5.11,6.63-9.52,18.67-13.42L701.46,80.08c11.31-3.36,16.13-11.57,19.69-18.06,3.3-6,5.69-6.21,8.37-6.72,3.34-.63,7.91-1.5,11.7-8.54l4.92-8.65c2.06-3.61,3.67-3.93,6.33-4.47,2.89-.57,6.84-1.37,9.83-6.49l5.59-9.32C772.94,9.43,768.3,0,757.67,0M12.41,19.22l-3.36-5.6c-1-1.69-1.67-5.44,3.13-5.44h310c6.26,0,13.31-.08,20.11,11.77A39.85,39.85,0,0,0,345.54,25H31.45c-12.78,0-15.25.07-19-5.79M213.47,31.28h343V85h-343ZM37,44.53C34.1,41.63,32.2,35.64,29.57,32l177.73-.74v7.8L56.89,47.84C45.26,48.61,40.43,48,37,44.53M60.27,65a52.06,52.06,0,0,1-4.33-6.88,32,32,0,0,0-2-3.18c2.17-.11,2.57-.17,6.59-.42L207.3,45.43v8.41L91.36,66.24c-15.6,1.67-26.26,4-31.09-1.27M100,80.76,78.9,74.61C93,72.92,207.3,60.17,207.3,60.17v9.31L132.94,81.41C124.4,82.79,114,84.49,100,80.76m51.5,15L128,88.93c2.18-.3,3.56-.54,6-1L207.3,75.77v10l-27.62,7.83c-.23.06-17.19,5.15-28.18,2.14m35,10.21h0L173,102.05A86.15,86.15,0,0,0,181.5,100l30-8.76H245l-31,14.44c-9.89,3.85-18.66,2.69-27.47.35m30.91,25c-3.74-2.56-5.68-5.34-7.78-8.36a42.09,42.09,0,0,0-6.51-7.8,41.79,41.79,0,0,0,7.3-1.08c3.67-.88,11.7-4.4,11.7-4.4L259.4,91.2h24.82l-48.81,34.58c-7.5,4.86-13.48,6.66-18,5.18m36.82,12-23.89-6.45a53.69,53.69,0,0,0,8.91-4.81c2.48-1.62-.38.41,56.26-40.47h20.74L278,130.29c-6.73,6.88-14.09,14.53-23.81,12.64M292,153.12l-22.48-6.07c6.17-3.58,11.59-9.58,13.7-11.78L325.66,91.2h18.67l-33.84,52.87c-5.58,8.43-12,10.25-18.54,9.05m39.43,10.66-23.93-6.47a29.82,29.82,0,0,0,9.38-9.79S352.3,91.2,352.3,91.2h16.08s-20.83,61-22.28,64.1c-4.15,8.95-8.92,9.63-14.72,8.48m85.23-1.9L396.8,143.11c-8.3-7.86-15.37-7.86-23.67,0l-19.81,18.77a19.82,19.82,0,0,1-4.57,3.11c3.67-4.53,5.8-10.9,7.19-15.1L375.58,91.2h18.78L414,149.89c1.44,4.34,3.56,10.62,7.19,15.1a20.25,20.25,0,0,1-4.57-3.11m21.95,1.9c-5.81,1.15-10.57.47-14.73-8.48-1.45-3.09-22.28-64.1-22.28-64.1h16.08l35.48,56.32a29.94,29.94,0,0,0,9.37,9.79ZM478,153.12c-6.58,1.2-13-.62-18.55-9.05L425.6,91.2h18.68l42.48,44.07c2.11,2.2,7.54,8.2,13.7,11.78Zm37.71-10.19c-9.72,1.89-17.08-5.76-23.81-12.64L453.68,91.2h20.75s53.78,38.85,56.26,40.47a53.18,53.18,0,0,0,8.9,4.81Zm44.61-20.33c-2.11,3-4,5.8-7.79,8.36-4.52,1.48-10.5-.32-18-5.18-2.14-1.38-48.81-34.58-48.81-34.58h24.81s28.7,14.16,37.28,18.12c4.78,2.19,11,5.08,19,5.48a42,42,0,0,0-6.5,7.8M583.43,106h0c-8.82,2.34-17.59,3.5-27.46-.35-3.58-1.39-31-14.44-31-14.44h33.51l30,8.76a86.15,86.15,0,0,0,8.53,2.09L583.43,106m35-10.21c-11,3-28.18-2.14-28.18-2.14l-27.62-7.83v-10L635.92,88c2.47.41,3.85.65,6,1l-23.51,6.85m51.5-15c-14,3.73-24.4,2-32.94.65L562.63,69.48V60.17L691,74.61l-21.1,6.15M714,58.09A51,51,0,0,1,709.66,65c-4.82,5.28-15.49,2.94-31.09,1.27L562.63,53.84V45.43l146.74,9.06c4,.25,4.43.31,6.59.42a34,34,0,0,0-2,3.18m16.67-12.54c-5.67,3.62-12.1,2.57-31.2,1.46L562.63,39.08v-7.8l177.71.77c-3.63,5.1-4.67,10.31-9.68,13.5m30.22-31.93-3.36,5.6c-3.79,5.86-6.26,5.8-19,5.79H424.39a37.76,37.76,0,0,0,3.26-5.07c6.8-11.85,13.86-11.77,20.11-11.77h310c4.8,0,4.14,3.75,3.12,5.44M410.82,74.27C410,64.57,409.46,58.85,409,55a202.33,202.33,0,0,0-9.57,18.85h-2.09c-5.2-10.63-5.82-11.85-7.3-14.63-.49-.91-1.08-2-2.11-4-.43,3.83-1.23,11.37-1.79,19.1H380.8c1.55-11.18,4-30.17,4.21-31.77h3.25s7.68,15.35,11,21.12c3.89-7.12,6.42-12.22,11.42-21.12h2.95c.52,4.58,2.21,19.12,3.78,31.77ZM508.77,42.5h-6.3V74.27h6.3ZM489.88,74.27V47.21a75.68,75.68,0,0,1,9.45.66V42.5H473.72v5.35a90.43,90.43,0,0,1,9.89-.64V74.27Zm-198.36,0V47.21a75.52,75.52,0,0,1,9.45.66V42.5h-25.6v5.35a90.4,90.4,0,0,1,9.88-.64V74.27Zm73.51,0V42.5h-5V63L341.14,42.5h-3.53V74.27h5V52.79l19.23,21.48Zm-110.6-9v7.09a14.7,14.7,0,0,0,8.65,2.67c6.85,0,12.92-3.85,12.92-10.4a8.58,8.58,0,0,0-5.43-8.09c-4-1.81-6.56-2.22-8.33-3.71-3.14-2.65-.59-6.88,3.69-6.88,1.3,0,4.46.34,5.37,3.52h2.34V43.7a19,19,0,0,0-7.92-2,11.79,11.79,0,0,0-7,2.22c-4.85,3.55-6.19,10.76.68,14.89,4.31,2.58,10.21,2.29,10.36,7,.1,3.5-3.24,4.79-5.73,4.79-5,0-6.55-4.39-7-5.27Zm-.16,9L240.34,41.86H237.7L223.27,74.27h6a88.44,88.44,0,0,1,3.09-8.92h11.3c1.42,3.48,2.51,6.6,3.34,8.92Zm-20.2-13.1c.69-1.61.81-1.89,3.92-9.23,3,7,3.27,7.48,4,9.23Zm99.43-2.78c0-11.22-8.34-17-16.49-17s-16.5,5.71-16.5,17,8.34,17,16.5,17,16.49-5.71,16.49-17M317,71.15h0c-5,0-9.53-4.72-9.53-12.76,0-8.39,4.79-12.77,9.53-12.77h0c4.74,0,9.54,4.38,9.54,12.77s-4.8,12.76-9.54,12.76Zm134.15,3.12h6.27V61.18H459L469.6,74.27h7.78l-11.88-14a12,12,0,0,0,4.21-2.63,8.78,8.78,0,0,0,0-12.47c-1.85-1.86-4-2.93-9.43-2.93,0,0-7.25.07-9.12.2Zm6.25-27.94a16.56,16.56,0,0,1,2.15-.15c6.45,0,6.66,4.81,6.65,5.45,0,3.31-3,6.38-8.8,5.37Zm-7.86,27.94L435.62,41.86H433L418.55,74.27h6a88.44,88.44,0,0,1,3.09-8.92h11.3c1.42,3.48,2.52,6.6,3.35,8.92Zm-20.2-13.1c.69-1.61.81-1.89,3.92-9.23,3,7,3.28,7.48,4,9.23Zm113.26,13.1V42.5h-5V63L518.72,42.5h-3.53V74.27h5V52.79l19.23,21.48Z" fill="#fff"/></svg>