<svg xmlns="http://www.w3.org/2000/svg" viewBox="0 0 69.95 55.48"><defs><style>.cls-1{fill:#fff;}</style></defs><g id="Layer_2" data-name="Layer 2"><g id="Layer_1-2" data-name="Layer 1"><path class="cls-1" d="M56.26,24.5H22.81c-1.5,0-2.13-.62-2.13-2.13v-14c0-1.51.63-2.13,2.13-2.13h42.8a.74.74,0,0,0,.79-.44l3.06-5C69.79.25,69.66,0,69,0H.64C.15,0,0,.15,0,.64V30.08c0,.49.15.64.64.64H43.41c4.5,0,5.85,1.35,5.85,5.85v6.84c0,4.5-1.35,5.85-5.85,5.85H.91c-.63,0-.77.24-.45.79l2.88,5a.73.73,0,0,0,.79.45H56.26C67.58,55.48,70,52.83,70,40S67.58,24.5,56.26,24.5"/></g></g></svg>