<svg width="125" height="22" viewBox="0 0 125 22" fill="none" xmlns="http://www.w3.org/2000/svg">
<g clip-path="url(#clip0_1051_56078)">
<path d="M54.0926 0.164307H50.4238V0.493177C50.622 0.526064 50.9032 0.605932 51.0691 0.690499V9.09548C50.9032 9.18005 50.622 9.25992 50.4238 9.2928V9.62167H53.263V9.2928C53.0648 9.25992 52.7836 9.18005 52.6177 9.09548V7.16924C52.6177 7.16924 53.9543 6.80278 55.3001 6.37525C56.7289 5.91484 58.1623 5.10206 58.1439 3.15233C58.13 1.06635 56.7105 0.164307 54.0926 0.164307ZM53.7561 5.68463L52.6131 5.9994V1.21669H53.3736C54.3046 1.21669 56.5215 1.22609 56.5215 3.25099C56.5215 4.16713 55.9316 5.02689 53.7515 5.68463H53.7561Z" fill="white"/>
<path d="M65.6149 7.81289H65.2922C65.26 8.0384 65.1586 8.32498 65.0157 8.56459H60.7017V4.89064H63.8727C63.9694 5.05508 64.0432 5.22891 64.0985 5.42153H64.2921V3.29797H64.0985C64.0386 3.52348 63.9787 3.65033 63.8727 3.82886H60.7017V1.22139H64.7253C64.8313 1.42341 64.9097 1.63952 64.9512 1.87913H65.2738V0.164307H58.5078V0.493177C58.706 0.526064 58.9871 0.605932 59.1531 0.690499V9.09548C58.9871 9.18005 58.706 9.25992 58.5078 9.2928V9.62167H65.6102V7.81289H65.6149Z" fill="white"/>
<path d="M8.68359 0.493177C8.88178 0.526064 9.16293 0.605932 9.32885 0.690499V9.09548C9.16293 9.18005 8.88178 9.25992 8.68359 9.2928V9.62167H11.5227V9.2928C11.3245 9.25992 11.0434 9.18005 10.8775 9.09548V0.690499C11.0434 0.605932 11.3245 0.526064 11.5227 0.493177V0.164307H8.68359V0.493177Z" fill="white"/>
<path d="M5.32391 4.73549C5.5221 4.76838 5.80324 4.84825 5.96917 4.93281V8.49401C3.64164 8.49401 1.72891 6.79798 1.72891 4.4677C1.72891 2.6824 2.77054 1.08034 4.4943 1.05215C5.48983 1.05685 5.91847 1.54545 6.15353 2.03406C6.41624 1.9448 7.67449 1.57834 7.67449 1.57834C7.13985 0.563541 6.09822 -0.0143308 4.4436 -0.000236333C2.83967 0.0138581 -0.0455442 1.01456 0.000545576 4.4724C0.0466353 7.7517 2.52626 9.60747 6.13048 9.60747H7.50396L7.51317 4.93751C7.6791 4.85295 7.96025 4.77308 8.15843 4.74019V4.41132H5.3193V4.74019L5.32391 4.73549Z" fill="white"/>
<path d="M31.2922 6.48807C31.2922 6.48807 31.9098 6.31424 32.8362 6.02765L34.7858 9.61703H36.9243V9.28816C36.7261 9.25527 36.445 9.17541 36.2791 9.09084L34.3249 5.51085C35.3112 5.05044 36.1316 4.28934 36.1178 2.88459C36.1039 0.986541 34.818 0.169064 32.4352 0.169064H29.0983V0.497934C29.2965 0.530821 29.5776 0.61069 29.7435 0.695256V9.09554C29.5822 9.1801 29.3103 9.25527 29.1121 9.28816C28.9139 9.25058 28.642 9.17541 28.4807 9.09084L25.3005 0.159668H23.5491L20.4426 9.09084C20.2859 9.17071 20.0278 9.24588 19.8296 9.28346C19.6314 9.24588 19.3733 9.17071 19.212 9.09084L17.2578 5.51085C18.2441 5.05044 19.0645 4.28934 19.0507 2.88459C19.0369 0.986541 17.751 0.169064 15.3681 0.169064H12.0312V0.497934C12.2294 0.530821 12.5106 0.61069 12.6765 0.695256V9.09554C12.5106 9.1801 12.2294 9.25997 12.0312 9.29286V9.62173H14.8704V9.29286C14.6722 9.25997 14.391 9.1801 14.2251 9.09554V6.48807C14.2251 6.48807 14.8381 6.31424 15.7645 6.03235L17.6819 9.62173H19.7928H22.4014V9.29286C22.2033 9.25997 21.9221 9.1801 21.7562 9.09554L22.7609 5.95248H25.6784L26.7661 9.10023C26.6002 9.1848 26.3191 9.26467 26.1209 9.29756V9.62643H29.1029H31.942V9.29756C31.7438 9.26467 31.4627 9.1848 31.2968 9.10023V6.49276L31.2922 6.48807ZM31.2922 1.22145H31.919C32.6841 1.22145 34.5092 1.23084 34.5092 2.96446C34.5092 3.6269 34.0944 4.52424 32.3015 5.08802L31.2922 5.3793V1.22145ZM15.2345 5.08802L14.2251 5.3793V1.22145H14.8519C15.617 1.22145 17.4422 1.23084 17.4422 2.96446C17.4422 3.6269 17.0274 4.52424 15.2345 5.08802ZM23.102 4.8907L24.1621 1.57381L25.3097 4.8907H23.102Z" fill="white"/>
<path d="M45.5375 4.58526C45.5375 0.925406 42.491 0.164307 40.3478 0.164307H37.375V0.493177C37.5732 0.526064 37.8543 0.605932 38.0203 0.690499V9.09548C37.8543 9.18005 37.5732 9.25992 37.375 9.2928V9.62167L39.4076 9.60288C43.0072 9.60288 45.5375 7.85987 45.5375 4.58056V4.58526ZM39.6518 8.48002V1.21669H40.3985C42.431 1.22139 43.8414 2.54627 43.8414 4.52418C43.8414 7.66255 41.8134 8.37666 39.6518 8.47532V8.48002Z" fill="white"/>
<path d="M49.5792 4.89062H47.0028L46.7539 5.95241H49.3303L49.5792 4.89062Z" fill="white"/>
<path d="M112.977 0.493177C113.175 0.526064 113.456 0.605932 113.622 0.690499V8.49411C110.755 8.48002 109.879 7.25381 109.879 4.46781V0.690499C110.045 0.605932 110.326 0.526064 110.525 0.493177V0.164307H107.686V0.493177C107.884 0.526064 108.165 0.605932 108.331 0.690499V4.4725C108.326 8.0384 109.257 9.64046 113.779 9.62637H115.152L115.161 0.695197C115.327 0.61063 115.608 0.530762 115.807 0.497875V0.164307H112.967V0.493177H112.977Z" fill="white"/>
<path d="M79.9063 5.51074C80.8926 5.05032 81.713 4.28922 81.6992 2.88447C81.6853 0.986422 80.3994 0.168945 78.0166 0.168945H74.6797V0.497815C74.8779 0.530702 75.159 0.610571 75.3249 0.695137V9.09542C75.159 9.17999 74.8779 9.25985 74.6797 9.29274V9.62161H77.5188V9.29274C77.3206 9.25985 77.0395 9.17999 76.8736 9.09542V6.48795C76.8736 6.48795 77.4866 6.31412 78.413 6.03223L80.3303 9.62161H82.5057V9.29274C82.3075 9.25985 82.0264 9.17999 81.8605 9.09542L79.9063 5.51543V5.51074ZM77.8829 5.0879L76.8736 5.37919V1.22133H77.5004C78.2655 1.22133 80.0906 1.23073 80.0906 2.96434C80.0906 3.62678 79.6758 4.52413 77.8829 5.0879Z" fill="white"/>
<path d="M74.0487 9.29293C73.8505 9.26004 73.5694 9.18017 73.4034 9.0956L71.4492 5.51562C72.4356 5.0552 73.256 4.2941 73.2421 2.88936C73.2283 0.991305 71.9424 0.173828 69.5596 0.173828H66.2227V0.502698C66.4208 0.535585 66.702 0.615454 66.8679 0.70002V9.0956C66.702 9.18017 66.4208 9.26004 66.2227 9.29293V9.6218H69.0618V9.29293C68.8636 9.26004 68.5825 9.18017 68.4165 9.0956V6.48813C68.4165 6.48813 69.0295 6.3143 69.9559 6.03241L71.8733 9.6218H74.0487V9.29293ZM69.4259 5.08809L68.4165 5.37937V1.22151H69.0434C69.8084 1.22151 71.6336 1.23091 71.6336 2.96453C71.6336 3.62696 71.2188 4.52431 69.4259 5.08809Z" fill="white"/>
<path d="M90.2867 7.81289H89.9641C89.9318 8.0384 89.8304 8.32498 89.6876 8.56459H85.3736V4.89064H88.5445C88.6413 5.05508 88.7151 5.22891 88.7704 5.42153H88.964V3.29797H88.7704C88.7105 3.52348 88.6505 3.65033 88.5445 3.82886H85.3736V1.22139H89.3972C89.5032 1.42341 89.5816 1.63952 89.623 1.87913H89.9457V0.164307H83.1797V0.493177C83.3779 0.526064 83.659 0.605932 83.8249 0.690499V9.09548C83.659 9.18005 83.3779 9.25992 83.1797 9.2928V9.62167H90.2821V7.81289H90.2867Z" fill="white"/>
<path d="M104.556 0.159668H102.804L99.698 9.09084C99.5321 9.17541 99.2509 9.25528 99.0527 9.28816V9.61703H101.661V9.28816C101.463 9.25528 101.182 9.17541 101.016 9.09084L102.021 5.94778H104.938L106.026 9.09554C105.86 9.18011 105.579 9.25997 105.381 9.29286V9.62173H108.395V9.29286C108.197 9.25997 107.916 9.18011 107.75 9.09554L104.556 0.159668ZM102.353 4.8907L103.413 1.57381L104.56 4.8907H102.353Z" fill="white"/>
<path d="M124.356 9.09078L121.438 4.50539L123.872 0.685801C124.038 0.601234 124.319 0.521366 124.517 0.488479V0.164307H121.788V0.493177C121.987 0.526064 122.268 0.605932 122.434 0.690499L120.719 3.38254L119.005 0.690499C119.171 0.605932 119.452 0.526064 119.65 0.493177V0.164307H116.516V0.493177C116.714 0.526064 116.995 0.605932 117.161 0.690499L119.567 4.46781L116.622 9.09548C116.456 9.18005 116.175 9.25992 115.977 9.2928V9.62167H118.724V9.2928C118.525 9.25992 118.244 9.18005 118.078 9.09548L120.3 5.60946L122.521 9.09548C122.355 9.18005 122.074 9.25992 121.876 9.2928V9.62167H125.001V9.2928C124.803 9.25992 124.522 9.18005 124.356 9.09548V9.09078Z" fill="white"/>
<path d="M98.9515 4.40687H96.1124V4.73574C96.3106 4.76862 96.5917 4.84849 96.7576 4.93306V8.49425C94.4301 8.49425 92.5174 6.79822 92.5174 4.46794C92.5174 2.68265 93.559 1.08058 95.2828 1.05239C96.2783 1.05709 96.7069 1.5457 96.942 2.0343C97.2047 1.94504 98.463 1.57858 98.463 1.57858C97.9329 0.563785 96.8913 -0.0140866 95.2367 7.80786e-06C93.6281 0.0141022 90.7429 1.01481 90.7936 4.47264C90.8397 7.75195 93.3193 9.60771 96.9236 9.60771H98.297L98.3063 4.93776C98.4722 4.85319 98.7533 4.77332 98.9515 4.74043V4.41156V4.40687Z" fill="white"/>
<path d="M78.837 15.1563H72.3153L72.5595 15.6919C72.6886 15.9785 73.0066 16.8899 72.7393 17.3175C72.6287 17.496 72.3936 17.5852 72.0433 17.5852C70.0891 17.5852 65.7613 17.6134 65.7475 17.6134C65.4801 17.6134 64.8764 17.5195 64.7519 17.2235C64.6782 17.0121 64.1574 15.7624 62.512 15.7389H62.5028C60.8573 15.7624 60.3365 17.0121 60.2582 17.2235C60.1291 17.5242 59.53 17.6181 59.258 17.6134C59.2442 17.6134 54.9164 17.5852 52.9622 17.5852C52.6119 17.5852 52.3768 17.4913 52.2662 17.3175C51.9989 16.8899 52.3169 15.9785 52.446 15.6919L52.6949 15.1563H46.1732L43.7949 18.1866L46.1732 21.2169H52.6949L52.446 20.6813C52.3169 20.3947 51.9989 19.4786 52.2662 19.0511C52.3768 18.8772 52.6119 18.7833 52.9622 18.7833C54.9164 18.7833 59.2442 18.7551 59.2626 18.7551C59.53 18.7551 60.1291 18.849 60.2582 19.1497C60.3319 19.3611 60.8527 20.6062 62.5028 20.6296H62.512C64.162 20.6109 64.6782 19.3611 64.7519 19.1497C64.881 18.849 65.4802 18.7551 65.7521 18.7551C65.7613 18.7551 70.0937 18.7833 72.0479 18.7833C72.4028 18.7833 72.6379 18.8725 72.7439 19.0511C73.0112 19.4786 72.6978 20.39 72.5641 20.6813L72.3199 21.2122H72.896H78.8416L81.2152 18.1819L78.8416 15.1516L78.837 15.1563Z" fill="white"/>
</g>
<defs>
<clipPath id="clip0_1051_56078">
<rect width="125" height="21.2121" fill="white"/>
</clipPath>
</defs>
</svg>