<svg xmlns="http://www.w3.org/2000/svg" width="14" height="14" viewBox="0 0 14 14">
<g fill="none" fill-rule="evenodd">
<g class="svg-fill" fill="#A3A3A3" fill-rule="nonzero">
<g>
<path d="M68 14h-2.9V9.452c0-1.084-.02-2.479-1.508-2.479-1.51 0-1.74 1.182-1.74 2.402V14h-2.898V4.649h2.781v1.278h.04c.387-.735 1.334-1.51 2.745-1.51 2.938 0 3.48 1.936 3.48 4.454V14zM55.684 3.371c-.932 0-1.684-.755-1.684-1.685S54.752 0 55.684 0c.927 0 1.68.756 1.68 1.686 0 .93-.753 1.685-1.68 1.685zM57.134 14H54.23V4.649h2.904V14z" transform="translate(-284 -1000) translate(230 1000)"/>
</g>
</g>
</g>
</svg>