<svg xmlns="http://www.w3.org/2000/svg" width="22" height="16" viewBox="0 0 22 16">
<g fill="none" fill-rule="evenodd">
<g class="svg-fill" fill="#FFF">
<g>
<g>
<path d="M1318.728 758.95v-6.391l5.944 3.207-5.944 3.185zm13.052-7.499s-.215-1.567-.874-2.257c-.837-.907-1.775-.911-2.205-.964-3.078-.23-7.696-.23-7.696-.23h-.01s-4.618 0-7.696.23c-.43.053-1.368.057-2.205.964-.66.69-.874 2.257-.874 2.257s-.22 1.842-.22 3.682v1.726c0 1.841.22 3.682.22 3.682s.215 1.567.874 2.258c.837.906 1.937.878 2.426.972 1.76.175 7.48.229 7.48.229s4.623-.007 7.701-.237c.43-.054 1.368-.058 2.205-.964.659-.69.874-2.258.874-2.258s.22-1.84.22-3.682v-1.726c0-1.84-.22-3.682-.22-3.682z" transform="translate(-1310 -7511) translate(0 6763)"/>
</g>
</g>
</g>
</g>
</svg>