<svg xmlns="http://www.w3.org/2000/svg" width="270" height="130" viewBox="0 0 270 130">
<g fill="none" fill-rule="evenodd">
<g fill="#FFF">
<g>
<g>
<g>
<path d="M181.288 185.14v92.49c0 1.051-.316 1.37-1.37 1.37h-44.575c-1.918 0-2.493-.576-2.493-2.495V177.27c0-10.55-3.155-13.709-13.708-13.709h-9.726c-1.054 0-1.759-.405-2.29-1.319-1.924-3.294-3.848-6.586-5.77-9.883-.939-1.607.071-3.36 1.931-3.36h45.96c26.5 0 32.041 6.251 32.041 36.14zm185.059 27.097c-.462.604-.827 1.096-.827 1.762 0 .668.365 1.157.827 1.762C371 221.874 371 227.985 371 234.095v8.728c0 29.888-5.546 36.14-32.044 36.14H239.252c-26.5 0-32.042-6.252-32.042-36.14v-8.728c0-6.11 0-12.221 4.651-18.334.464-.605.827-1.094.827-1.762 0-.666-.363-1.158-.827-1.762-4.65-6.113-4.65-12.224-4.65-18.337v-8.723c0-29.888 5.54-36.142 32.041-36.142h99.704c26.498 0 32.044 6.254 32.044 36.142v8.723c0 6.113 0 12.224-4.653 18.337zm-43.785 22.512c0-10.553-3.16-13.71-13.713-13.71H269.357c-10.55 0-13.709 3.157-13.709 13.71v15.942c0 10.55 3.158 13.71 13.709 13.71H308.849c10.553 0 13.713-3.16 13.713-13.71V234.75zm0-57.44c0-10.55-3.16-13.71-13.713-13.71H269.357c-10.55 0-13.709 3.16-13.709 13.71v15.937c0 10.553 3.158 13.712 13.709 13.712H308.849c10.553 0 13.713-3.159 13.713-13.712V177.31z" transform="translate(-1061 -149) translate(-69 -23) translate(1029 23)"/>
</g>
</g>
</g>
</g>
</g>
</svg>